<?xml version="1.0" encoding="iso-8859-1"?>
<!-- Uploaded to: SVG Repo, www.svgrepo.com, Generator: SVG Repo Mixer Tools -->
<svg height="800px" width="800px" version="1.1" id="Layer_1" xmlns="http://www.w3.org/2000/svg" xmlns:xlink="http://www.w3.org/1999/xlink" 
	 viewBox="0 0 512.001 512.001" xml:space="preserve">
<path style="fill:#00E7F0;" d="M99.909,365.548c4.451,4.453,10.404,6.817,16.46,6.817c2.999,0,6.023-0.579,8.901-1.772
	c8.698-3.603,14.367-12.089,14.367-21.502V162.909c0-9.413-5.669-17.9-14.367-21.501c-8.693-3.601-18.708-1.612-25.363,5.046
	L6.817,239.545c-9.089,9.087-9.089,23.824,0,32.912L99.909,365.548z"/>
<g>
	<path style="fill:#424EDE;" d="M488.728,418.909H23.274c-12.853,0-23.273,10.42-23.273,23.273s10.42,23.273,23.273,23.273h465.455
		c12.853,0,23.273-10.42,23.273-23.273S501.581,418.909,488.728,418.909z"/>
	<path style="fill:#424EDE;" d="M488.728,325.819H256.001c-12.853,0-23.273,10.42-23.273,23.273
		c0,12.853,10.42,23.273,23.273,23.273h232.727c12.853,0,23.273-10.42,23.273-23.273
		C512.001,336.239,501.581,325.819,488.728,325.819z"/>
	<path style="fill:#424EDE;" d="M488.728,232.728H256.001c-12.853,0-23.273,10.42-23.273,23.273
		c0,12.853,10.42,23.273,23.273,23.273h232.727c12.853,0,23.273-10.42,23.273-23.273
		C512.001,243.148,501.581,232.728,488.728,232.728z"/>
	<path style="fill:#424EDE;" d="M488.728,46.546H23.274c-12.853,0-23.273,10.42-23.273,23.273s10.42,23.273,23.273,23.273h465.455
		c12.853,0,23.273-10.42,23.273-23.273S501.581,46.546,488.728,46.546z"/>
	<path style="fill:#424EDE;" d="M488.728,139.637H256.001c-12.853,0-23.273,10.42-23.273,23.273
		c0,12.853,10.42,23.273,23.273,23.273h232.727c12.853,0,23.273-10.42,23.273-23.273
		C512.001,150.057,501.581,139.637,488.728,139.637z"/>
</g>
<path style="fill:#00D7DF;" d="M139.637,162.909c0-9.413-5.669-17.9-14.367-21.501c-8.692-3.601-18.708-1.612-25.363,5.046
	L6.817,239.545C2.274,244.088,0.001,250.044,0.001,256h139.636V162.909z"/>
</svg>